<svg viewBox="0 0 29.2871 29.2874" xmlns="http://www.w3.org/2000/svg" xmlns:xlink="http://www.w3.org/1999/xlink" width="29.287109" height="29.287354" fill="none" customFrame="#000000">
	<defs>
		<linearGradient id="paint_linear_28" x1="14.6435423" x2="14.6435423" y1="0.643676758" y2="28.6436768" gradientUnits="userSpaceOnUse">
			<stop stop-color="rgb(241,247,255)" offset="0" stop-opacity="1" />
			<stop stop-color="rgb(255,254.745,254.745)" offset="1" stop-opacity="1" />
		</linearGradient>
		<clipPath id="clipPath_110">
			<rect width="16.333317" height="16.333336" x="6.477051" y="6.476990" fill="rgb(255,255,255)" />
		</clipPath>
	</defs>
	<g id="light">
		<rect id="矩形 775" width="27.999975" height="28.000000" x="0.643555" y="0.643677" rx="5.670887" fill="url(#paint_linear_28)" />
		<rect id="矩形 775" width="28.643654" height="28.643679" x="0.321716" y="0.321838" rx="5.992726" stroke="rgb(240,240,240)" stroke-width="0.643678129" />
		<g id="ic_public_sun" clip-path="url(#clipPath_110)" customFrame="url(#clipPath_110)">
			<rect id="ic_public_sun" width="16.333317" height="16.333336" x="6.477051" y="6.476990" />
			<g id="ic_public_sun_1_1">
				<path id="ic_public_sun_2_0" d="M6.98917 14.6374C6.98917 13.4413 6.98498 12.2452 6.98917 11.0491C6.98676 10.4703 7.0579 9.89358 7.20088 9.33272C7.51425 8.14558 8.28753 7.44108 9.47347 7.16777C10.0681 7.03929 10.6755 6.9791 11.2838 6.98835C13.5775 6.98835 15.8714 6.98835 18.1655 6.98835C18.7449 6.98476 19.3226 7.05102 19.8861 7.18571C21.108 7.48474 21.8412 8.25862 22.1205 9.47625C22.246 10.0517 22.306 10.6396 22.2993 11.2285C22.2993 13.547 22.2993 15.8656 22.2993 18.1845C22.3024 18.7583 22.2363 19.3304 22.1025 19.8883C21.8035 21.1108 21.026 21.8404 19.8084 22.1197C19.2137 22.2477 18.6064 22.3079 17.9981 22.2991C15.7139 22.2991 13.43 22.2991 11.1462 22.2991C10.5624 22.3039 9.98014 22.2386 9.41187 22.1047C8.18467 21.8057 7.44787 21.0282 7.16918 19.8046C7.02684 19.1826 6.98917 18.5589 6.98917 17.9297C6.98917 16.8325 6.98917 15.7351 6.98917 14.6374Z" fill="rgb(255,255,255)" fill-opacity="0" fill-rule="nonzero" />
				<path id="ic_public_sun_2_0" d="M6.98917 11.0491C6.98676 10.4703 7.0579 9.89358 7.20088 9.33272C7.51425 8.14558 8.28753 7.44108 9.47347 7.16777C10.0681 7.03929 10.6755 6.9791 11.2838 6.98835C13.5775 6.98835 15.8714 6.98835 18.1655 6.98835C18.7449 6.98476 19.3226 7.05102 19.8861 7.18571C21.108 7.48474 21.8412 8.25862 22.1205 9.47625C22.246 10.0517 22.306 10.6396 22.2993 11.2285C22.2993 13.547 22.2993 15.8656 22.2993 18.1845C22.3024 18.7583 22.2363 19.3304 22.1025 19.8883C21.8035 21.1108 21.026 21.8404 19.8084 22.1197C19.2137 22.2477 18.6064 22.3079 17.9981 22.2991C15.7139 22.2991 13.43 22.2991 11.1462 22.2991C10.5624 22.3039 9.98014 22.2386 9.41187 22.1047C8.18467 21.8057 7.44787 21.0282 7.16918 19.8046C7.02684 19.1826 6.98917 18.5589 6.98917 17.9297C6.98917 16.8325 6.98917 15.7351 6.98917 14.6374C6.98917 13.4413 6.98498 12.2452 6.98917 11.0491Z" fill-rule="nonzero" stroke="rgb(255,255,255)" stroke-opacity="0" stroke-width="1.02083313" />
				<path id="ic_public_sun_2_1" d="M6.98917 11.0491C6.98676 10.4703 7.0579 9.89358 7.20088 9.33272C7.51425 8.14558 8.28753 7.44108 9.47347 7.16777C10.0681 7.03929 10.6755 6.9791 11.2838 6.98835C13.5775 6.98835 15.8714 6.98835 18.1655 6.98835C18.7449 6.98476 19.3226 7.05102 19.8861 7.18571C21.108 7.48474 21.8412 8.25862 22.1205 9.47625C22.246 10.0517 22.306 10.6396 22.2993 11.2285C22.2993 13.547 22.2993 15.8656 22.2993 18.1845C22.3024 18.7583 22.2363 19.3304 22.1025 19.8883C21.8035 21.1108 21.026 21.8404 19.8084 22.1197C19.2137 22.2477 18.6064 22.3079 17.9981 22.2991C15.7139 22.2991 13.43 22.2991 11.1462 22.2991C10.5624 22.3039 9.98014 22.2386 9.41187 22.1047C8.18467 21.8057 7.44787 21.0282 7.16918 19.8046C7.02684 19.1826 6.98917 18.5589 6.98917 17.9297C6.98917 16.8325 6.98917 15.7351 6.98917 14.6374C6.98917 13.4413 6.98498 12.2452 6.98917 11.0491Z" opacity="0.200000003" fill-rule="nonzero" stroke="rgb(255,255,255)" stroke-opacity="0" stroke-width="1.02083313" />
				<ellipse id="ic_public_sun_2_2" rx="8.166658" ry="8.166669" cx="14.6437092" cy="14.6436586" fill="rgb(255,255,255)" fill-opacity="0" />
				<ellipse id="ic_public_sun_2_3" rx="4.423606" ry="4.423612" cx="14.6433334" cy="14.6436443" fill="rgb(255,255,255)" fill-opacity="0" />
				<ellipse id="ic_public_sun_2_3" rx="4.423606" ry="4.423612" cx="14.6433334" cy="14.6436443" stroke="rgb(25,25,25)" stroke-linecap="round" stroke-linejoin="round" stroke-width="1.02083313" />
				<path id="ic_public_sun_2_4" d="M20.7684 14.6437L21.7892 14.6437M7.49756 14.6437L8.51839 14.6437M14.6434 20.7687L14.6434 21.7895M14.6434 7.49786L14.6434 8.5187M10.3124 18.9747L9.59052 19.6966M19.6962 9.59083L18.9744 10.3127M10.3124 10.3127L9.59052 9.59083M19.6962 19.6966L18.9744 18.9747" stroke="rgb(25,25,25)" stroke-linecap="round" stroke-linejoin="round" stroke-width="1.02083313" />
				<path id="ic_public_sun_2_5" d="M14.6433 20.4284C14.8313 20.4284 14.9836 20.5807 14.9836 20.7686L14.9836 21.7895C14.9836 21.9774 14.8313 22.1298 14.6433 22.1298C14.4554 22.1298 14.3031 21.9774 14.3031 21.7895L14.3031 20.7686C14.3031 20.5807 14.4554 20.4284 14.6433 20.4284ZM10.0717 18.7341C10.2046 18.6012 10.42 18.6012 10.5529 18.7341C10.6858 18.867 10.6858 19.0824 10.5529 19.2153L9.83108 19.9371C9.69819 20.07 9.48274 20.07 9.34986 19.9371C9.21697 19.8042 9.21697 19.5888 9.34986 19.4559L10.0717 18.7341ZM18.7337 18.7341C18.8666 18.6012 19.0821 18.6012 19.215 18.7341L19.9368 19.4559C20.0697 19.5888 20.0697 19.8042 19.9368 19.9371C19.8039 20.07 19.5885 20.07 19.4556 19.9371L18.7337 19.2153C18.6009 19.0824 18.6009 18.867 18.7337 18.7341ZM21.7892 14.3034C21.9771 14.3034 22.1294 14.4557 22.1294 14.6436C22.1294 14.8316 21.9771 14.9839 21.7892 14.9839L20.7683 14.9839C20.5804 14.9839 20.428 14.8316 20.428 14.6436C20.428 14.4557 20.5804 14.3034 20.7683 14.3034L21.7892 14.3034ZM8.51834 14.3034C8.70627 14.3034 8.85861 14.4557 8.85861 14.6436C8.85861 14.8316 8.70627 14.9839 8.51834 14.9839L7.4975 14.9839C7.30957 14.9839 7.15723 14.8316 7.15723 14.6436C7.15723 14.4557 7.30957 14.3034 7.4975 14.3034L8.51834 14.3034ZM19.4556 9.35016C19.5885 9.21728 19.8039 9.21728 19.9368 9.35016C20.0697 9.48305 20.0697 9.6985 19.9368 9.83139L19.215 10.5532C19.0821 10.6861 18.8666 10.6861 18.7337 10.5532C18.6009 10.4203 18.6009 10.2049 18.7337 10.072L19.4556 9.35016ZM9.34986 9.35016C9.48274 9.21728 9.69819 9.21728 9.83108 9.35016L10.5529 10.072C10.6858 10.2049 10.6858 10.4203 10.5529 10.5532C10.42 10.6861 10.2046 10.6861 10.0717 10.5532L9.34986 9.83139C9.21697 9.6985 9.21697 9.48305 9.34986 9.35016ZM14.6433 7.15753C14.8313 7.15753 14.9836 7.30988 14.9836 7.49781L14.9836 8.51864C14.9836 8.70657 14.8313 8.85892 14.6433 8.85892C14.4554 8.85892 14.3031 8.70657 14.3031 8.51864L14.3031 7.49781C14.3031 7.30988 14.4554 7.15753 14.6433 7.15753Z" fill="rgb(255,255,255)" fill-opacity="0" fill-rule="nonzero" />
				<path id="ic_public_sun_2_5" d="M14.9836 20.7686L14.9836 21.7895C14.9836 21.9774 14.8313 22.1298 14.6433 22.1298C14.4554 22.1298 14.3031 21.9774 14.3031 21.7895L14.3031 20.7686C14.3031 20.5807 14.4554 20.4284 14.6433 20.4284C14.8313 20.4284 14.9836 20.5807 14.9836 20.7686ZM10.5529 18.7341C10.6858 18.867 10.6858 19.0824 10.5529 19.2153L9.83108 19.9371C9.69819 20.07 9.48274 20.07 9.34986 19.9371C9.21697 19.8042 9.21697 19.5888 9.34986 19.4559L10.0717 18.7341C10.2046 18.6012 10.42 18.6012 10.5529 18.7341ZM19.215 18.7341L19.9368 19.4559C20.0697 19.5888 20.0697 19.8042 19.9368 19.9371C19.8039 20.07 19.5885 20.07 19.4556 19.9371L18.7337 19.2153C18.6009 19.0824 18.6009 18.867 18.7337 18.7341C18.8666 18.6012 19.0821 18.6012 19.215 18.7341ZM22.1294 14.6436C22.1294 14.8316 21.9771 14.9839 21.7892 14.9839L20.7683 14.9839C20.5804 14.9839 20.428 14.8316 20.428 14.6436C20.428 14.4557 20.5804 14.3034 20.7683 14.3034L21.7892 14.3034C21.9771 14.3034 22.1294 14.4557 22.1294 14.6436ZM8.85861 14.6436C8.85861 14.8316 8.70627 14.9839 8.51834 14.9839L7.4975 14.9839C7.30957 14.9839 7.15723 14.8316 7.15723 14.6436C7.15723 14.4557 7.30957 14.3034 7.4975 14.3034L8.51834 14.3034C8.70627 14.3034 8.85861 14.4557 8.85861 14.6436ZM19.9368 9.35016C20.0697 9.48305 20.0697 9.6985 19.9368 9.83139L19.215 10.5532C19.0821 10.6861 18.8666 10.6861 18.7337 10.5532C18.6009 10.4203 18.6009 10.2049 18.7337 10.072L19.4556 9.35016C19.5885 9.21728 19.8039 9.21728 19.9368 9.35016ZM9.83108 9.35016L10.5529 10.072C10.6858 10.2049 10.6858 10.4203 10.5529 10.5532C10.42 10.6861 10.2046 10.6861 10.0717 10.5532L9.34986 9.83139C9.21697 9.6985 9.21697 9.48305 9.34986 9.35016C9.48274 9.21728 9.69819 9.21728 9.83108 9.35016ZM14.9836 7.49781L14.9836 8.51864C14.9836 8.70657 14.8313 8.85892 14.6433 8.85892C14.4554 8.85892 14.3031 8.70657 14.3031 8.51864L14.3031 7.49781C14.3031 7.30988 14.4554 7.15753 14.6433 7.15753C14.8313 7.15753 14.9836 7.30988 14.9836 7.49781Z" fill-rule="nonzero" stroke="rgb(255,255,255)" stroke-opacity="0" stroke-width="1.02083313" />
			</g>
		</g>
	</g>
</svg>
