<svg viewBox="0 0 16 16" xmlns="http://www.w3.org/2000/svg" xmlns:xlink="http://www.w3.org/1999/xlink" width="16.000000" height="16.000000" fill="none">
	<rect id="操作/保存" width="16.000000" height="16.000000" x="0.000000" y="0.000000" />
	<path id="矢量 324" d="M15 3.38615L15 12.6138C15 12.7854 14.9814 12.9569 14.9441 13.1209C14.9142 13.2626 14.8695 13.4043 14.8099 13.5422C14.7527 13.6764 14.6843 13.8032 14.6048 13.9225C14.519 14.0567 14.4146 14.1835 14.2991 14.2991C14.1835 14.4146 14.0567 14.519 13.9225 14.6048C13.8032 14.6843 13.6764 14.7527 13.5422 14.8099C13.4043 14.8695 13.2626 14.9142 13.1209 14.9441C12.9569 14.9814 12.7854 15 12.6138 15L3.38615 15C3.20968 15 3.03693 14.9814 2.86791 14.9441C2.72623 14.9105 2.58828 14.8658 2.45779 14.8099C2.32108 14.7527 2.19183 14.6843 2.07004 14.6048C1.93955 14.5153 1.81278 14.4146 1.6972 14.2991C1.58162 14.1835 1.48096 14.0605 1.39521 13.9262C1.31318 13.8044 1.24359 13.6764 1.18642 13.5422C1.13049 13.4043 1.08575 13.2663 1.05593 13.1246C1.01864 12.9606 1 12.7891 1 12.6138L1 3.38615C1 3.20719 1.01864 3.03196 1.05593 2.86045C1.08824 2.72375 1.13174 2.58953 1.18642 2.45779C1.24607 2.3186 1.31567 2.1881 1.39521 2.06631C1.4822 1.93458 1.58287 1.81154 1.6972 1.6972C1.81154 1.58287 1.93458 1.4822 2.06631 1.39521C2.1881 1.31567 2.3186 1.24607 2.45779 1.18642C2.58953 1.13174 2.72375 1.08824 2.86045 1.05593C3.03196 1.01864 3.20719 1 3.38615 1L12.6138 1C12.7891 1 12.9606 1.01864 13.1246 1.05593C13.2663 1.08575 13.4043 1.13049 13.5422 1.18642C13.6764 1.24607 13.8069 1.31318 13.9262 1.39521C14.0605 1.4822 14.1847 1.58287 14.2991 1.6972C14.4159 1.81403 14.5178 1.9383 14.6048 2.07004C14.6831 2.19308 14.7539 2.31984 14.8099 2.45779C14.8658 2.58828 14.9105 2.72623 14.9441 2.86791C14.9814 3.03693 15 3.20968 15 3.38615ZM12.0993 4.38535C12.1242 4.26853 12.1366 4.14922 12.1366 4.02743L12.1366 1.95446L12.6138 1.95446C12.722 1.95446 12.8301 1.96565 12.9382 1.99174C13.0165 2.01039 13.0948 2.03276 13.1694 2.06631C13.2477 2.09987 13.3222 2.14088 13.3931 2.18562C13.4776 2.2403 13.5546 2.30244 13.6242 2.37204C13.6951 2.44288 13.7585 2.52117 13.8144 2.6032C13.8591 2.67403 13.9001 2.7486 13.9337 2.8269C13.9635 2.90146 13.9896 2.97976 14.0083 3.05433C14.0306 3.16245 14.0455 3.2743 14.0455 3.38615L14.0455 12.6138C14.0455 12.7207 14.0331 12.8264 14.0083 12.9308C13.9896 13.0128 13.9635 13.0911 13.9337 13.1694C13.9001 13.2477 13.8591 13.3222 13.8144 13.3893C13.7585 13.4751 13.6951 13.5534 13.6242 13.6242C13.5534 13.6951 13.4751 13.7585 13.3893 13.8144C13.3222 13.8591 13.2477 13.9001 13.1694 13.9337C13.0911 13.9635 13.0128 13.9896 12.9308 14.0083C12.8264 14.0344 12.722 14.0455 12.6138 14.0455L3.38615 14.0455C3.2743 14.0455 3.16494 14.0331 3.05806 14.0083C2.98349 13.9896 2.90146 13.9635 2.8269 13.9337C2.7486 13.9001 2.67403 13.8591 2.6032 13.8144C2.52117 13.7585 2.44288 13.6951 2.37204 13.6242C2.3012 13.5534 2.24154 13.4751 2.18562 13.3931C2.14088 13.3222 2.09987 13.2477 2.06631 13.1694C2.03276 13.0948 2.01039 13.0165 1.99174 12.9382C1.96565 12.8301 1.95446 12.722 1.95446 12.6138L1.95446 3.38615C1.95446 3.27182 1.96689 3.15996 1.99174 3.0506C2.01163 2.97355 2.03648 2.89898 2.06631 2.8269C2.09987 2.7486 2.14088 2.67031 2.18935 2.59947C2.24154 2.51993 2.30244 2.44412 2.37204 2.37204C2.44412 2.30244 2.51993 2.24154 2.59947 2.18935C2.67155 2.14212 2.74736 2.10111 2.8269 2.06631C2.89898 2.03648 2.97355 2.01163 3.0506 1.99174C3.15996 1.96689 3.27182 1.95446 3.38615 1.95446L3.86338 1.95446L3.86338 4.02743C3.86338 4.15171 3.87581 4.2735 3.90067 4.39281C3.92304 4.49969 3.95659 4.60408 4.00133 4.70599C4.04234 4.80666 4.09454 4.89987 4.15047 4.98935C4.21509 5.08629 4.28966 5.17701 4.37417 5.26152C4.46116 5.34851 4.55313 5.42432 4.65007 5.48895C4.73955 5.5486 4.83276 5.59707 4.92969 5.63808C5.03409 5.68282 5.13475 5.71638 5.24288 5.73875C5.36218 5.7636 5.48522 5.77603 5.61198 5.77603L10.3843 5.77603C10.5073 5.77603 10.6266 5.76485 10.7459 5.73875C10.8541 5.71638 10.9622 5.68282 11.0666 5.63808C11.1635 5.59707 11.2567 5.5486 11.3425 5.49268C11.4431 5.42557 11.5364 5.351 11.6221 5.26525C11.7079 5.17577 11.7824 5.08629 11.8495 4.98562C11.9055 4.89614 11.9539 4.80666 11.9987 4.70972C12.0397 4.6016 12.077 4.4972 12.0993 4.38535ZM11.1822 1.95819L11.1822 4.02743C11.1822 4.13182 11.1635 4.22876 11.1262 4.32197C11.0889 4.41891 11.0293 4.50839 10.9473 4.59041C10.8652 4.66995 10.7758 4.7296 10.6788 4.76937C10.5893 4.80417 10.4912 4.82157 10.3843 4.82157L5.61198 4.82157C5.50386 4.82157 5.4032 4.80293 5.31371 4.76565C5.21678 4.72836 5.13103 4.66871 5.05273 4.59041C4.97071 4.50839 4.91105 4.42264 4.87377 4.3257C4.83648 4.23373 4.81784 4.13431 4.81784 4.02743L4.81784 1.95819L11.1822 1.95819ZM10.0711 3.22583C9.81012 3.22583 9.59387 3.44208 9.59387 3.70306C9.59387 3.96778 9.81012 4.18029 10.0711 4.18029C10.3358 4.18029 10.5483 3.96778 10.5483 3.70306C10.5483 3.44208 10.3358 3.22583 10.0711 3.22583Z" fill="rgb(20,118,255)" fill-rule="evenodd" />
</svg>
